<svg width="734" height="640" viewBox="0 0 734 640" fill="none" xmlns="http://www.w3.org/2000/svg" xmlns:xlink="http://www.w3.org/1999/xlink">
<rect width="734" height="640" fill="url(#pattern0)"/>
<defs>
<pattern id="pattern0" patternContentUnits="objectBoundingBox" width="1" height="1">
<use xlink:href="#image0" transform="translate(-0.00408719) scale(0.0013624 0.0015625)"/>
</pattern>
<image id="image0" width="740" height="640" xlink:href="img/home.png"/>
</defs>
<path d="M222 531.7L442.8 539.7L512 526V547.7L443.5 567.4L222 556.4V531.7Z" fill="#3595F6" fill-opacity="0.75"/>
<path d="M223 530.7V505.7L443.3 509L513 505.7V525.7L443.7 538.7L223 530.7Z" fill="#3595F6" fill-opacity="0.75"/>
<path d="M223 504.7V479.7H444H513V502.7L445 509.7L223 504.7Z" fill="#3595F6" fill-opacity="0.75"/>
<path d="M223 480.7V455.7L444.3 452L512 458.7V480.7H444" fill="#3595F6" fill-opacity="0.75"/>
<path d="M223 454.7V428.7L444.5 425.4L513 436.4V457.7L444 451L223 454.7Z" fill="#3595F6" fill-opacity="0.75"/>
<path d="M222 427.7V404L443 391.7L514 414.7V436L443 423.7L222 427.7Z" fill="#3595F6" fill-opacity="0.75"/>
<path d="M222 405.7V380.7L444.2 364.4L514 393V413.7L443.7 392L222 405.7Z" fill="#3595F6" fill-opacity="0.75"/>
<path d="M222 380.7V355.7L444.5 335.4L514 372V392.7L442 364L222 380.7Z" fill="#3595F6" fill-opacity="0.75"/>
<path d="M222 354.7V330.7L445 306L514 350V371.7L444.7 333.7L222 354.7Z" fill="#3595F6" fill-opacity="0.75"/>
<path d="M222 329.7V305.7L444.5 277L514 328V348.7L443.7 306.4L222 329.7Z" fill="#3595F6" fill-opacity="0.75"/>
<path d="M221 305.7V281.7L443.3 248.7L514 308V327.7L444 277L221 305.7Z" fill="#3595F6" fill-opacity="0.75"/>
<path d="M222 280.7V256.7L443.2 221.7L513 285.7V306.7L444.3 248.4L222 280.7Z" fill="#3595F6" fill-opacity="0.75"/>
<path d="M222 256.7V231.7L444.3 193.7L513 264V284.7L444 220.7L222 256.7Z" fill="#3595F6" fill-opacity="0.75"/>
<path d="M222 230.7V205.7L442.8 162L513 241V263.7L444 190.4L222 230.7Z" fill="#3595F6" fill-opacity="0.75"/>
<path d="M223 206.7V181.7L443 133.7L513 218.7V241.7L442.3 162.4L223 206.7Z" fill="#3595F6" fill-opacity="0.75"/>
<path d="M222 181.7V156.7L441.8 104.7L513 197V219.7L443.3 133.4L222 181.7Z" fill="#3595F6" fill-opacity="0.75"/>
<path d="M222 156.7V130.7L444 74L513 175.7V196.7L443.7 105L222 156.7Z" fill="#3595F6" fill-opacity="0.75"/>
</svg>
